<?xml version="1.0" ?><!-- Uploaded to: SVG Repo, www.svgrepo.com, Generator: SVG Repo Mixer Tools -->
<svg fill="#000000" width="800px" height="800px" viewBox="0 0 100 100" data-name="Layer 1" id="Layer_1" xmlns="http://www.w3.org/2000/svg"><path d="M63.44,67.39a1.25,1.25,0,1,0,0,2.5c6,0,10.17,1.44,12.42,4.27a9.86,9.86,0,0,1,1.72,7.63,1.25,1.25,0,0,0,.93,1.5,1.33,1.33,0,0,0,.28,0,1.25,1.25,0,0,0,1.22-1,12.28,12.28,0,0,0-2.17-9.74C75.09,69.15,70.25,67.39,63.44,67.39Z"/><path d="M36.92,68.64a1.25,1.25,0,0,0-1.25-1.25c-6.76,0-11.48,1.75-14,5.18-3.2,4.34-1.61,9.65-1.54,9.87a1.25,1.25,0,0,0,1.19.88,1.57,1.57,0,0,0,.37,0,1.25,1.25,0,0,0,.83-1.56S21.23,77.34,23.68,74c2.05-2.75,6.08-4.15,12-4.15A1.25,1.25,0,0,0,36.92,68.64Z"/><path d="M76.78,34.25a1.24,1.24,0,0,0-1.64-.64,31.1,31.1,0,0,1-4,1.43A.94.94,0,0,0,71,35C68.87,23.12,60.4,14.92,50.05,14.92S31.23,23.12,29.16,35a5.79,5.79,0,0,0,0,11.24c2.1,12.72,11,22.17,20.91,22.17S68.86,59,71,46.24a5.55,5.55,0,0,0,4.4-5.62A5.94,5.94,0,0,0,74,36.75c.72-.25,1.44-.53,2.18-.85A1.25,1.25,0,0,0,76.78,34.25ZM50.05,17.42c9.16,0,16.64,7.45,18.45,18.2a23.47,23.47,0,0,1-20-5.81,1.26,1.26,0,0,0-1.6-.16l-7,4.79.65-3a1.25,1.25,0,0,0-2.25-1,11.37,11.37,0,0,1-6.46,4.13C33.91,24.38,41.21,17.42,50.05,17.42Zm22.82,23.2a3,3,0,0,1-2.66,3.18h0l-.2,0a1.24,1.24,0,0,0-1.35,1.08c-1.61,12-9.61,21-18.6,21s-17-9-18.59-21a1.26,1.26,0,0,0-1.24-1.09h-.11a.58.58,0,0,0-.19,0,3,3,0,0,1-2.68-3.19,3,3,0,0,1,2.67-3.18h0l.21,0a1.11,1.11,0,0,0,.65-.13,16.55,16.55,0,0,0,6.43-2.46L36.75,37a1.23,1.23,0,0,0,.52,1.29,1.21,1.21,0,0,0,.7.22,1.19,1.19,0,0,0,.7-.22l8.8-6a26.75,26.75,0,0,0,23.6,5.36A3.18,3.18,0,0,1,72.87,40.62Z"/><path d="M44.51,44.49a1.25,1.25,0,0,0-1.58-.78l-2.87,1a1.25,1.25,0,0,0,.4,2.43,1.39,1.39,0,0,0,.4-.06l2.87-1A1.24,1.24,0,0,0,44.51,44.49Z"/><path d="M58.82,44.69l-2.87-1a1.25,1.25,0,0,0-.8,2.37l2.86,1a1.45,1.45,0,0,0,.41.06,1.25,1.25,0,0,0,.4-2.43Z"/><path d="M49.22,51.79c-2.85,0-5.46,2-7.35,5.74l-.19.37a1.25,1.25,0,0,0,1.11,1.82h0l12.67-.38a1.25,1.25,0,0,0,1.08-1.81C54.69,53.83,52.07,51.79,49.22,51.79ZM45,57.15c1.27-1.83,2.76-2.86,4.23-2.86s2.83.93,4.06,2.62Z"/><path d="M18.65,49.45a1.25,1.25,0,0,0,.71,1.62l3.44,1.34-2.43,2.36A1.24,1.24,0,0,0,20,56a1.28,1.28,0,0,0,.84.91l7.68,2.43a1.25,1.25,0,0,0,.76-2.38l-5.69-1.8,2.32-2.27a1.24,1.24,0,0,0-.42-2.06l-5.24-2A1.26,1.26,0,0,0,18.65,49.45Z"/><path d="M27.31,64.3A1.26,1.26,0,0,0,26,63.1l-6.87.28L20,60.76a1.24,1.24,0,0,0-.25-1.22,1.28,1.28,0,0,0-1.18-.4l-4.84,1a1.25,1.25,0,0,0-1,1.48,1.24,1.24,0,0,0,1.47,1L17,62l-.75,2.29a1.25,1.25,0,0,0,.19,1.15,1.23,1.23,0,0,0,1,.49h.05l8.67-.35A1.25,1.25,0,0,0,27.31,64.3Z"/><path d="M81.24,49.45a1.26,1.26,0,0,0-1.62-.71l-5.24,2A1.25,1.25,0,0,0,74,52.84l2.32,2.27-5.69,1.8a1.25,1.25,0,1,0,.76,2.38L79,56.86a1.26,1.26,0,0,0,.84-.91,1.24,1.24,0,0,0-.35-1.18L77.1,52.41l3.43-1.34A1.25,1.25,0,0,0,81.24,49.45Z"/><path d="M86.17,60.12l-4.85-1a1.25,1.25,0,0,0-1.18.4,1.24,1.24,0,0,0-.25,1.22l.86,2.62-6.87-.28a1.25,1.25,0,1,0-.1,2.5l8.67.35h0a1.23,1.23,0,0,0,1-.49,1.25,1.25,0,0,0,.19-1.15L82.93,62l2.74.55a1.24,1.24,0,0,0,1.47-1A1.25,1.25,0,0,0,86.17,60.12Z"/><path d="M55.88,73.25A2.43,2.43,0,0,0,55,70.34a3.4,3.4,0,0,0-3.85-.48,7.11,7.11,0,0,0-1.48,1,4.39,4.39,0,0,0-3.48-.09,6.74,6.74,0,0,0-1.84,1.14l-1.19,1a2.6,2.6,0,0,0-1.39-1.68,2.65,2.65,0,0,0-2.48.06l-.5.28A8.25,8.25,0,0,0,33.14,79a1.27,1.27,0,0,0,0,.28l.94,4.87a1.24,1.24,0,0,0,.51.92,1.26,1.26,0,0,0,1.75-.27,1.23,1.23,0,0,0,.22-1L35.65,79a5.75,5.75,0,0,1,4-5,.85.85,0,0,0,.22-.09l.59-.34a.17.17,0,0,1,.16,0c.07,0,.07.07.07.09a2.43,2.43,0,0,1-.26,1.69l-.93.82h0A1.25,1.25,0,0,0,41.14,78l1.06-.92h0l3.73-3.26a3.93,3.93,0,0,1,1.17-.72A1.63,1.63,0,0,1,48,73l-2.92,3.4a1.24,1.24,0,0,0,.13,1.76,1.19,1.19,0,0,0,.81.31A1.25,1.25,0,0,0,47,78l4.9-5.69a2.05,2.05,0,0,1,.77-.3.82.82,0,0,1,.68.23l.2.2c-.07.13-.19.31-.29.46l-.06.08L48,79.26A1.25,1.25,0,0,0,48.17,81a1.28,1.28,0,0,0,.8.28,1.23,1.23,0,0,0,1-.46l4.37-5.32a3.1,3.1,0,0,1-.1,2.25,4.39,4.39,0,0,1-.77,1.09l-.08.09L49.9,83.29a1.25,1.25,0,0,0,1,2,1.24,1.24,0,0,0,1-.47l3.42-4.3a6.63,6.63,0,0,0,1.17-1.69,5.7,5.7,0,0,0-.2-5.2A1.42,1.42,0,0,0,55.88,73.25Z"/></svg>